<?xml version="1.0" standalone="no"?>
<!DOCTYPE svg PUBLIC "-//W3C//DTD SVG 20010904//EN"
 "http://www.w3.org/TR/2001/REC-SVG-20010904/DTD/svg10.dtd">
<svg version="1.0" xmlns="http://www.w3.org/2000/svg"
 width="1024.000000pt" height="280.000000pt" viewBox="0 400 1024.000000 280.000000"
 preserveAspectRatio="xMidYMid meet">

<g transform="translate(0.000000,1024.000000) scale(0.100000,-0.100000)"
fill="#9E1B1B" stroke="none">
<path d="M3147 5943 c-4 -3 -7 -39 -7 -80 l0 -73 -195 0 -195 0 0 -105 0 -105
60 0 c58 0 70 -6 51 -25 -21 -21 -41 -133 -41 -227 0 -189 71 -290 246 -353
64 -22 301 -32 404 -16 139 21 221 81 278 201 24 51 26 66 26 195 1 114 -2
146 -16 174 -10 19 -18 38 -18 43 0 4 29 8 65 8 l65 0 0 105 0 105 -237 2
-236 3 -2 65 c0 36 -4 71 -9 78 -8 13 -227 18 -239 5z m309 -398 c18 -7 43
-29 54 -47 18 -29 21 -46 18 -140 -3 -98 -5 -109 -28 -134 -44 -48 -94 -64
-203 -64 -112 0 -150 12 -191 60 -27 33 -28 35 -24 147 l3 113 37 36 c22 23
51 40 75 45 53 11 218 1 259 -16z"/>
<path d="M3952 5868 c-17 -17 -15 -42 7 -69 18 -22 18 -43 13 -443 l-5 -419
60 5 c114 11 183 66 183 147 0 59 6 67 55 75 22 4 57 12 78 18 l37 11 0 114
c0 62 -1 113 -3 113 -1 0 -36 -9 -76 -20 -40 -12 -75 -19 -77 -17 -5 5 -8 96
-3 101 2 2 38 10 79 18 l75 14 3 112 c1 62 -1 112 -5 112 -4 0 -33 -7 -63 -15
-93 -25 -90 -27 -90 70 l0 85 -128 0 c-86 0 -132 -4 -140 -12z"/>
<path d="M5712 5868 c-18 -18 -14 -53 8 -73 19 -17 20 -29 18 -124 l-3 -105
-49 -12 c-77 -20 -76 -23 -76 157 l0 160 -137 -3 -138 -3 -3 -31 c-2 -19 3
-36 12 -44 14 -11 16 -64 16 -416 l0 -404 33 0 c63 0 136 29 178 71 l39 39 0
119 c0 66 4 122 8 125 5 3 32 8 60 12 l52 7 0 -197 0 -196 41 0 c64 0 116 20
165 63 l44 39 0 414 0 414 -128 0 c-86 0 -132 -4 -140 -12z"/>
<path d="M9002 5853 c-10 -19 0 -57 17 -68 8 -4 11 -230 11 -741 l0 -734 60 0
c69 0 102 14 161 67 l39 35 0 729 0 729 -140 0 c-122 0 -140 -2 -148 -17z"/>
<path d="M4747 5844 c-4 -4 -7 -59 -7 -121 0 -208 -31 -321 -112 -409 -50 -55
-109 -90 -163 -99 -80 -13 -75 -5 -75 -126 0 -126 -9 -118 113 -95 128 25 274
111 339 202 29 41 34 44 43 28 25 -44 111 -124 164 -152 61 -33 163 -62 219
-62 l33 0 -3 106 -3 107 -40 12 c-121 36 -203 118 -236 235 -7 25 -15 119 -18
210 l-6 165 -121 3 c-66 1 -123 -1 -127 -4z"/>
<path d="M6383 5831 l-162 -6 2 -105 2 -105 500 0 c275 0 528 -1 563 -3 l62
-2 0 -415 0 -415 35 0 c53 0 134 35 177 77 l38 37 0 468 0 468 -453 0 c-250 0
-487 2 -528 3 -41 2 -147 1 -236 -2z"/>
<path d="M1102 5723 l3 -108 390 3 c215 2 468 0 562 -3 l173 -7 2 -412 3 -411
50 1 c57 2 115 27 163 72 l32 30 0 471 0 471 -690 0 -691 0 3 -107z"/>
<path d="M7870 5720 l0 -110 350 0 c273 0 350 -3 351 -12 6 -64 -4 -656 -13
-698 -24 -127 -95 -222 -194 -260 -52 -20 -84 -24 -274 -29 l-215 -6 0 -110 0
-110 205 0 c236 1 320 15 437 72 137 66 209 154 265 322 l32 96 4 478 3 477
-475 0 -476 0 0 -110z"/>
<path d="M1537 5123 c-4 -3 -7 -120 -7 -259 0 -220 -2 -253 -16 -258 -9 -3
-132 -6 -275 -6 l-259 0 0 -110 0 -110 715 0 c623 0 720 2 753 15 73 31 112
86 112 160 l0 45 -212 1 c-117 0 -292 2 -388 2 l-175 2 -3 263 -2 262 -118 0
c-65 0 -122 -3 -125 -7z"/>
<path d="M6640 4871 l0 -260 -43 -6 c-24 -4 -147 -5 -275 -3 l-232 3 0 -112 0
-113 733 0 c693 0 734 1 773 19 23 10 54 36 70 56 24 31 29 48 29 94 l0 56
-400 0 -400 0 -3 263 -2 262 -125 0 -125 0 0 -259z"/>
<path d="M4780 4900 c-64 -11 -93 -24 -134 -61 -63 -55 -79 -99 -80 -219 0
-89 3 -113 23 -158 30 -67 76 -107 149 -129 51 -16 105 -18 532 -18 l475 0 60
24 c75 30 139 93 156 153 6 25 9 88 7 150 -3 100 -5 109 -34 150 -37 54 -116
96 -204 108 -78 11 -886 11 -950 0z m919 -224 c23 -21 28 -74 10 -108 -24 -45
-55 -48 -454 -48 -449 0 -445 -1 -445 100 0 30 6 43 27 60 26 21 32 21 434 18
384 -3 408 -4 428 -22z"/>
<path d="M3075 4873 c-107 -15 -202 -79 -226 -152 -20 -57 -17 -208 4 -262 23
-61 51 -85 134 -117 l68 -27 429 -3 c365 -3 442 -1 510 13 185 38 237 108 222
299 -8 109 -35 161 -103 202 -85 50 -126 54 -587 53 -232 -1 -434 -4 -451 -6z
m865 -203 c36 -15 49 -46 38 -88 -16 -60 -32 -62 -445 -62 -330 0 -372 2 -403
18 -28 13 -36 24 -38 50 -5 49 20 80 65 84 21 2 199 4 397 6 253 3 366 0 386
-8z"/>
<path d="M1115 3971 c-86 -21 -110 -73 -103 -223 7 -159 36 -197 155 -205 54
-4 78 -1 107 12 52 25 66 58 66 155 l0 80 -70 0 c-67 0 -70 -1 -70 -24 0 -19
7 -25 36 -31 36 -6 36 -6 31 -51 -7 -62 -20 -74 -82 -74 -46 0 -57 4 -74 26
-18 23 -21 41 -21 130 0 118 10 137 74 150 41 7 85 -15 93 -47 4 -14 14 -19
40 -19 35 0 35 1 29 32 -15 78 -103 115 -211 89z"/>
<path d="M1585 3965 c-22 -8 -41 -15 -41 -15 -1 0 -9 -15 -18 -34 -20 -43 -23
-267 -3 -305 30 -59 130 -88 212 -61 63 21 75 54 75 205 0 139 -7 165 -50 196
-35 26 -125 33 -175 14z m133 -61 c21 -14 22 -22 22 -140 0 -111 -2 -126 -20
-144 -27 -27 -73 -25 -107 4 -27 23 -28 29 -31 126 -3 68 0 110 8 125 23 43
87 58 128 29z"/>
<path d="M2739 3973 c-23 -3 -33 -19 -71 -101 l-45 -97 -35 70 c-19 39 -38 83
-42 98 -6 24 -11 27 -47 27 -29 0 -40 -4 -36 -12 3 -7 29 -65 58 -128 45 -99
53 -126 58 -195 l6 -80 35 0 35 0 5 75 c6 76 19 112 94 264 32 63 37 89 18 85
-4 -1 -19 -4 -33 -6z"/>
<path d="M3927 3963 c-60 -25 -77 -69 -77 -203 0 -160 22 -201 117 -216 73
-11 153 4 185 36 27 27 28 33 28 119 l0 91 -70 0 -70 0 0 -30 c0 -28 3 -30 35
-30 l35 0 0 -50 c0 -66 -26 -86 -103 -77 -77 9 -87 26 -87 147 0 54 4 110 9
123 20 53 141 61 163 11 9 -18 19 -24 45 -24 37 0 40 8 17 51 -31 60 -145 86
-227 52z"/>
<path d="M4735 3961 c-58 -26 -81 -89 -55 -155 12 -34 43 -52 120 -72 93 -23
118 -52 90 -104 -24 -44 -140 -27 -140 20 0 17 -7 20 -40 20 -36 0 -40 -2 -40
-26 0 -61 50 -95 144 -97 74 -2 122 16 141 54 17 32 19 86 6 122 -10 26 -60
60 -106 71 -95 23 -103 27 -109 50 -9 37 3 55 44 66 46 12 85 0 95 -29 5 -16
15 -21 41 -21 20 0 34 5 34 13 0 21 -38 75 -61 88 -38 20 -120 20 -164 0z"/>
<path d="M6651 3962 c-69 -34 -74 -55 -72 -264 1 -67 4 -80 27 -107 34 -41 82
-52 169 -41 60 7 74 13 97 39 26 29 28 38 28 116 l0 85 -70 0 -70 0 0 -30 c0
-28 3 -30 34 -30 l35 0 -4 -47 c-4 -63 -32 -88 -90 -78 -80 12 -85 21 -85 148
0 129 9 152 65 163 42 8 92 -11 100 -37 7 -20 46 -35 70 -25 12 4 13 11 4 33
-6 15 -18 36 -27 47 -41 46 -148 61 -211 28z"/>
<path d="M7145 3966 c-59 -26 -85 -81 -85 -180 0 -112 16 -178 50 -208 28 -26
36 -28 121 -28 87 0 92 1 120 29 28 28 29 33 29 120 l0 91 -65 0 -65 0 0 -30
c0 -27 3 -30 34 -30 l34 0 -5 -47 c-3 -27 -12 -55 -20 -63 -19 -20 -94 -18
-127 4 -25 16 -26 20 -26 121 0 128 8 151 55 164 42 11 105 -3 105 -24 0 -17
6 -21 48 -30 27 -6 32 -4 32 13 0 36 -43 86 -85 98 -53 16 -113 16 -150 0z"/>
<path d="M7640 3974 c-84 -31 -93 -54 -93 -227 -1 -122 2 -140 20 -165 51 -69
215 -69 267 1 19 26 21 42 20 165 0 151 -11 188 -63 212 -29 14 -128 23 -151
14z m123 -85 c14 -18 17 -42 17 -140 0 -106 -2 -121 -20 -139 -26 -26 -80 -26
-114 1 -25 20 -26 23 -26 135 0 64 5 124 11 135 23 43 99 47 132 8z"/>
<path d="M8093 3969 c-75 -21 -101 -104 -87 -276 6 -77 10 -91 34 -114 34 -34
101 -46 178 -30 88 18 105 40 110 151 l4 90 -71 0 -71 0 0 -30 c0 -28 3 -30
34 -30 l35 0 -3 -45 c-5 -67 -28 -89 -90 -81 -79 9 -86 21 -86 150 0 130 9
150 69 160 51 8 89 -7 101 -39 8 -22 15 -26 42 -23 27 2 32 7 30 23 -6 30 -42
75 -69 86 -36 13 -124 18 -160 8z"/>
<path d="M8818 3972 l-28 -3 0 -205 0 -204 208 2 207 3 3 73 3 73 -28 -7 c-38
-10 -57 -35 -38 -50 20 -15 19 -38 -3 -57 -23 -21 -36 -21 -56 -1 -22 22 -20
30 14 66 32 33 38 59 17 77 -18 14 -37 -5 -37 -37 0 -29 -15 -58 -34 -65 -22
-9 -46 20 -46 53 0 16 -7 30 -15 34 -22 8 -18 34 5 41 11 4 20 12 19 18 -3 29
3 37 26 37 20 0 25 -5 25 -25 0 -15 6 -26 15 -26 8 -1 21 -2 28 -3 6 -1 12 10
12 24 0 15 6 26 18 28 10 2 17 -3 17 -12 0 -11 9 -16 30 -16 l31 0 -3 93 -3
92 -180 0 c-99 0 -192 -1 -207 -3z m142 -77 c0 -25 1 -48 2 -52 1 -5 -6 -9
-15 -11 -14 -3 -17 5 -17 37 l0 41 -49 0 c-47 0 -68 9 -54 24 3 3 35 6 70 6
l63 0 0 -45z m-60 -59 c7 -19 17 -25 47 -28 26 -2 38 -8 38 -18 0 -12 -18 -16
-93 -18 -85 -3 -93 -1 -90 15 2 11 14 19 30 21 18 2 28 11 32 28 8 31 24 31
36 0z"/>
<path d="M2002 3763 l3 -208 35 0 35 0 0 87 c0 48 5 91 10 97 6 6 36 7 73 4
l62 -6 0 -94 0 -94 36 3 35 3 6 208 5 207 -41 0 -41 0 0 -79 c0 -89 -1 -91
-92 -91 -54 0 -53 -3 -48 108 l2 62 -41 0 -41 0 2 -207z"/>
<path d="M3035 3958 c-2 -7 -16 -44 -31 -83 -42 -111 -104 -298 -104 -312 0
-8 13 -13 34 -13 31 0 36 4 49 43 l14 42 78 0 78 0 15 -42 c13 -41 16 -43 52
-43 l38 0 -14 43 c-7 23 -39 117 -70 210 l-57 167 -39 0 c-22 0 -40 -5 -43
-12z m73 -174 c12 -34 22 -66 22 -73 0 -7 -21 -11 -56 -11 -45 0 -55 3 -51 14
3 8 11 34 17 57 18 67 30 93 39 83 4 -5 17 -36 29 -70z"/>
<path d="M3396 3939 c-3 -17 -6 -112 -6 -210 l0 -179 40 0 40 0 0 142 c0 103
3 139 11 131 6 -6 41 -69 78 -140 l66 -128 43 -3 42 -3 0 210 0 211 -35 0 -35
0 0 -142 c-1 -167 5 -168 -96 19 l-67 123 -37 0 c-34 0 -38 -3 -44 -31z"/>
<path d="M5261 3932 c-6 -21 -38 -114 -71 -206 -33 -92 -60 -169 -60 -172 0
-2 16 -4 35 -4 33 0 37 4 55 45 l20 46 77 -3 76 -3 15 -42 c12 -39 17 -43 48
-43 26 0 34 4 33 18 0 9 -30 103 -67 207 l-67 190 -42 3 c-41 3 -42 2 -52 -36z
m83 -146 c14 -41 26 -77 26 -80 0 -3 -25 -6 -56 -6 -46 0 -55 3 -50 15 3 9 13
41 22 73 16 57 22 72 28 72 2 0 15 -33 30 -74z"/>
<path d="M5652 3766 l2 -204 132 -7 c73 -4 137 -4 143 -1 6 4 11 18 11 32 0
24 0 24 -105 24 l-105 0 0 64 0 63 61 7 c34 3 77 6 95 6 29 0 34 3 34 24 0 21
-5 24 -61 30 -34 3 -77 6 -95 6 l-34 0 0 50 0 50 100 0 100 0 0 30 0 30 -140
0 -140 0 2 -204z"/>
<path d="M6090 3759 l0 -210 33 3 32 3 3 138 c1 75 6 137 10 137 8 0 87 -137
128 -222 27 -57 28 -58 71 -58 l43 0 0 210 0 210 -35 0 -35 0 0 -135 c0 -74
-4 -135 -9 -135 -5 0 -42 61 -82 135 l-74 135 -42 0 -43 0 0 -211z"/>
<path d="M8490 3760 l0 -210 35 0 35 0 0 210 0 210 -35 0 -35 0 0 -210z"/>
<path d="M9166 3751 c-3 -5 5 -11 19 -13 17 -4 25 -1 25 8 0 15 -36 19 -44 5z"/>
<path d="M9024 3709 c-3 -6 -1 -16 5 -22 8 -8 11 -5 11 11 0 24 -5 28 -16 11z"/>
<path d="M9110 3624 c0 -8 5 -12 10 -9 6 4 8 11 5 16 -9 14 -15 11 -15 -7z"/>
</g>
</svg>
